<mxfile host="app.diagrams.net" modified="2024-04-20T07:45:46.245Z" agent="Mozilla/5.0 (X11; Ubuntu; Linux x86_64; rv:125.0) Gecko/20100101 Firefox/125.0" etag="0FBETvv-LbP9nH9ds4fr" version="24.2.7" type="device">
  <diagram name="Страница — 1" id="6C47iCfQbLZ3kEDGV9bK">
    <mxGraphModel dx="2185" dy="1072" grid="1" gridSize="10" guides="1" tooltips="1" connect="1" arrows="1" fold="1" page="1" pageScale="1" pageWidth="827" pageHeight="1169" math="0" shadow="0">
      <root>
        <mxCell id="0" />
        <mxCell id="1" parent="0" />
        <mxCell id="xxCL4NgvebpRf6q6_67u-69" value="&lt;div style=&quot;font-size: 24px;&quot; align=&quot;center&quot;&gt;&lt;font style=&quot;font-size: 24px;&quot;&gt;Block&amp;nbsp;&lt;/font&gt;&lt;/div&gt;&lt;div style=&quot;font-size: 24px;&quot; align=&quot;center&quot;&gt;&lt;font style=&quot;font-size: 24px;&quot;&gt;Storage Clients&lt;/font&gt;&lt;/div&gt;" style="text;strokeColor=none;align=center;fillColor=none;html=1;verticalAlign=middle;whiteSpace=wrap;rounded=0;" parent="1" vertex="1">
          <mxGeometry width="168" height="60" as="geometry" />
        </mxCell>
        <mxCell id="sqNuJZpxEwWE7q_eDFbD-11" value="" style="sketch=0;outlineConnect=0;fontColor=#232F3E;gradientColor=none;fillColor=#000000;strokeColor=none;dashed=0;verticalLabelPosition=bottom;verticalAlign=top;align=center;html=1;fontSize=12;fontStyle=0;aspect=fixed;pointerEvents=1;shape=mxgraph.aws4.client;" parent="1" vertex="1">
          <mxGeometry x="45" y="65" width="78" height="76" as="geometry" />
        </mxCell>
        <mxCell id="sVHNkwEm1qRxrIIXRCfi-32" value="&lt;font style=&quot;font-size: 24px;&quot;&gt;RADOS&lt;/font&gt;" style="rounded=0;whiteSpace=wrap;html=1;strokeWidth=2;fillColor=none;" parent="1" vertex="1">
          <mxGeometry x="20" y="285" width="780" height="45" as="geometry" />
        </mxCell>
        <mxCell id="sVHNkwEm1qRxrIIXRCfi-33" value="" style="sketch=0;outlineConnect=0;fontColor=#232F3E;gradientColor=none;fillColor=#000000;strokeColor=none;dashed=0;verticalLabelPosition=bottom;verticalAlign=top;align=center;html=1;fontSize=12;fontStyle=0;aspect=fixed;pointerEvents=1;shape=mxgraph.aws4.client;" parent="1" vertex="1">
          <mxGeometry x="375" y="65" width="78" height="76" as="geometry" />
        </mxCell>
        <mxCell id="sVHNkwEm1qRxrIIXRCfi-34" value="" style="sketch=0;outlineConnect=0;fontColor=#232F3E;gradientColor=none;fillColor=#000000;strokeColor=none;dashed=0;verticalLabelPosition=bottom;verticalAlign=top;align=center;html=1;fontSize=12;fontStyle=0;aspect=fixed;pointerEvents=1;shape=mxgraph.aws4.client;" parent="1" vertex="1">
          <mxGeometry x="704" y="65" width="78" height="76" as="geometry" />
        </mxCell>
        <mxCell id="sVHNkwEm1qRxrIIXRCfi-36" value="" style="endArrow=none;html=1;rounded=0;strokeWidth=3;" parent="1" edge="1">
          <mxGeometry width="50" height="50" relative="1" as="geometry">
            <mxPoint x="209" y="415" as="sourcePoint" />
            <mxPoint x="324" y="415" as="targetPoint" />
          </mxGeometry>
        </mxCell>
        <mxCell id="sVHNkwEm1qRxrIIXRCfi-37" value="&lt;font style=&quot;font-size: 22px;&quot;&gt;A/S &lt;br&gt;&lt;/font&gt;" style="edgeLabel;html=1;align=center;verticalAlign=middle;resizable=0;points=[];" parent="sVHNkwEm1qRxrIIXRCfi-36" vertex="1" connectable="0">
          <mxGeometry x="0.1026" y="1" relative="1" as="geometry">
            <mxPoint x="-3" y="1" as="offset" />
          </mxGeometry>
        </mxCell>
        <mxCell id="sVHNkwEm1qRxrIIXRCfi-53" value="" style="line;strokeWidth=2;direction=south;html=1;perimeter=backbonePerimeter;points=[];outlineConnect=0;" parent="1" vertex="1">
          <mxGeometry x="115" y="335" width="10" height="20" as="geometry" />
        </mxCell>
        <mxCell id="sVHNkwEm1qRxrIIXRCfi-54" value="" style="line;strokeWidth=2;direction=south;html=1;perimeter=backbonePerimeter;points=[];outlineConnect=0;" parent="1" vertex="1">
          <mxGeometry x="409" y="335" width="10" height="20" as="geometry" />
        </mxCell>
        <mxCell id="sVHNkwEm1qRxrIIXRCfi-55" value="" style="line;strokeWidth=2;direction=south;html=1;perimeter=backbonePerimeter;points=[];outlineConnect=0;" parent="1" vertex="1">
          <mxGeometry x="703" y="335" width="10" height="20" as="geometry" />
        </mxCell>
        <mxCell id="sVHNkwEm1qRxrIIXRCfi-57" value="" style="edgeStyle=elbowEdgeStyle;elbow=vertical;endArrow=none;html=1;curved=0;rounded=0;endSize=8;startSize=8;endFill=0;strokeWidth=2;" parent="1" edge="1">
          <mxGeometry width="50" height="50" relative="1" as="geometry">
            <mxPoint x="545" y="285" as="sourcePoint" />
            <mxPoint x="745" y="144" as="targetPoint" />
            <Array as="points">
              <mxPoint x="650" y="230" />
            </Array>
          </mxGeometry>
        </mxCell>
        <mxCell id="sVHNkwEm1qRxrIIXRCfi-62" value="" style="strokeWidth=2;html=1;shape=mxgraph.flowchart.annotation_1;align=left;pointerEvents=1;rotation=-90;" parent="1" vertex="1">
          <mxGeometry x="203.5" y="21.5" width="90" height="335" as="geometry" />
        </mxCell>
        <mxCell id="sVHNkwEm1qRxrIIXRCfi-63" value="" style="line;strokeWidth=2;direction=south;html=1;perimeter=backbonePerimeter;points=[];outlineConnect=0;" parent="1" vertex="1">
          <mxGeometry x="280" y="230" width="10" height="54" as="geometry" />
        </mxCell>
        <mxCell id="sVHNkwEm1qRxrIIXRCfi-67" value="&lt;font style=&quot;font-size: 24px;&quot;&gt;LIBRADOS&lt;/font&gt;" style="text;strokeColor=none;align=center;fillColor=default;html=1;verticalAlign=middle;whiteSpace=wrap;rounded=0;" parent="1" vertex="1">
          <mxGeometry x="183" y="215" width="131" height="30" as="geometry" />
        </mxCell>
        <mxCell id="sVHNkwEm1qRxrIIXRCfi-68" value="&lt;font style=&quot;font-size: 24px;&quot;&gt;Ceph FS&lt;br&gt;&lt;/font&gt;" style="text;strokeColor=none;align=center;fillColor=default;html=1;verticalAlign=middle;whiteSpace=wrap;rounded=0;" parent="1" vertex="1">
          <mxGeometry x="600" y="215" width="100" height="30" as="geometry" />
        </mxCell>
        <mxCell id="sVHNkwEm1qRxrIIXRCfi-69" value="&lt;font style=&quot;font-size: 24px;&quot;&gt;RADOS GW&lt;br&gt;&lt;/font&gt;" style="text;strokeColor=none;align=center;fillColor=default;html=1;verticalAlign=middle;whiteSpace=wrap;rounded=0;" parent="1" vertex="1">
          <mxGeometry x="345" y="165" width="138" height="30" as="geometry" />
        </mxCell>
        <mxCell id="sVHNkwEm1qRxrIIXRCfi-70" value="&lt;font style=&quot;font-size: 24px;&quot;&gt;RDB&lt;br&gt;&lt;/font&gt;" style="text;strokeColor=none;align=center;fillColor=default;html=1;verticalAlign=middle;whiteSpace=wrap;rounded=0;" parent="1" vertex="1">
          <mxGeometry x="54" y="165" width="60" height="30" as="geometry" />
        </mxCell>
        <mxCell id="sVHNkwEm1qRxrIIXRCfi-71" value="&lt;div style=&quot;font-size: 24px;&quot; align=&quot;center&quot;&gt;&lt;font style=&quot;font-size: 24px;&quot;&gt;Object &lt;br&gt;&lt;/font&gt;&lt;/div&gt;&lt;div style=&quot;font-size: 24px;&quot; align=&quot;center&quot;&gt;&lt;font style=&quot;font-size: 24px;&quot;&gt;Storage Clients&lt;/font&gt;&lt;/div&gt;" style="text;strokeColor=none;align=center;fillColor=none;html=1;verticalAlign=middle;whiteSpace=wrap;rounded=0;" parent="1" vertex="1">
          <mxGeometry x="330" width="168" height="60" as="geometry" />
        </mxCell>
        <mxCell id="sVHNkwEm1qRxrIIXRCfi-72" value="&lt;div style=&quot;font-size: 24px;&quot; align=&quot;center&quot;&gt;&lt;font style=&quot;font-size: 24px;&quot;&gt;File-based&lt;br&gt;&lt;/font&gt;&lt;/div&gt;&lt;div style=&quot;font-size: 24px;&quot; align=&quot;center&quot;&gt;&lt;font style=&quot;font-size: 24px;&quot;&gt;Storage Clients&lt;/font&gt;&lt;/div&gt;" style="text;strokeColor=none;align=center;fillColor=none;html=1;verticalAlign=middle;whiteSpace=wrap;rounded=0;" parent="1" vertex="1">
          <mxGeometry x="659" width="168" height="60" as="geometry" />
        </mxCell>
        <mxCell id="cMsTI4cnmAn1WkQD0yUU-1" value="" style="group" vertex="1" connectable="0" parent="1">
          <mxGeometry x="20" y="360" width="200" height="230" as="geometry" />
        </mxCell>
        <mxCell id="sVHNkwEm1qRxrIIXRCfi-12" value="" style="rounded=1;whiteSpace=wrap;html=1;fillColor=none;strokeWidth=1;" parent="cMsTI4cnmAn1WkQD0yUU-1" vertex="1">
          <mxGeometry width="200" height="230" as="geometry" />
        </mxCell>
        <mxCell id="sqNuJZpxEwWE7q_eDFbD-1" value="&lt;font style=&quot;font-size: 22px;&quot;&gt;OSD&lt;/font&gt;" style="shape=datastore;whiteSpace=wrap;html=1;strokeWidth=3;fillColor=none;" parent="cMsTI4cnmAn1WkQD0yUU-1" vertex="1">
          <mxGeometry x="115" y="140" width="70" height="70" as="geometry" />
        </mxCell>
        <mxCell id="sqNuJZpxEwWE7q_eDFbD-6" value="&lt;font style=&quot;font-size: 22px;&quot;&gt;MDS&lt;/font&gt;" style="sketch=0;outlineConnect=0;fontColor=#232F3E;gradientColor=none;fillColor=#000000;strokeColor=none;dashed=0;verticalLabelPosition=bottom;verticalAlign=top;align=center;html=1;fontSize=12;fontStyle=0;aspect=fixed;pointerEvents=1;shape=mxgraph.aws4.servers;strokeWidth=0;" parent="cMsTI4cnmAn1WkQD0yUU-1" vertex="1">
          <mxGeometry x="115" y="20" width="69" height="69" as="geometry" />
        </mxCell>
        <mxCell id="sVHNkwEm1qRxrIIXRCfi-8" value="&lt;font style=&quot;font-size: 22px;&quot;&gt;OSD&lt;/font&gt;" style="shape=datastore;whiteSpace=wrap;html=1;strokeWidth=3;fillColor=none;" parent="cMsTI4cnmAn1WkQD0yUU-1" vertex="1">
          <mxGeometry x="15" y="140" width="70" height="70" as="geometry" />
        </mxCell>
        <mxCell id="sVHNkwEm1qRxrIIXRCfi-9" value="&lt;font style=&quot;font-size: 22px;&quot;&gt;MON&lt;/font&gt;" style="sketch=0;outlineConnect=0;fontColor=#232F3E;gradientColor=none;fillColor=#000000;strokeColor=none;dashed=0;verticalLabelPosition=bottom;verticalAlign=top;align=center;html=1;fontSize=12;fontStyle=0;aspect=fixed;pointerEvents=1;shape=mxgraph.aws4.opensearch_service_data_node;" parent="cMsTI4cnmAn1WkQD0yUU-1" vertex="1">
          <mxGeometry x="15" y="20" width="70" height="70" as="geometry" />
        </mxCell>
        <mxCell id="cMsTI4cnmAn1WkQD0yUU-2" value="" style="group" vertex="1" connectable="0" parent="1">
          <mxGeometry x="314" y="360" width="200" height="230" as="geometry" />
        </mxCell>
        <mxCell id="sVHNkwEm1qRxrIIXRCfi-40" value="" style="rounded=1;whiteSpace=wrap;html=1;fillColor=none;strokeWidth=1;" parent="cMsTI4cnmAn1WkQD0yUU-2" vertex="1">
          <mxGeometry width="200" height="230" as="geometry" />
        </mxCell>
        <mxCell id="sVHNkwEm1qRxrIIXRCfi-41" value="&lt;font style=&quot;font-size: 22px;&quot;&gt;OSD&lt;/font&gt;" style="shape=datastore;whiteSpace=wrap;html=1;strokeWidth=3;fillColor=none;" parent="cMsTI4cnmAn1WkQD0yUU-2" vertex="1">
          <mxGeometry x="115" y="140" width="70" height="70" as="geometry" />
        </mxCell>
        <mxCell id="sVHNkwEm1qRxrIIXRCfi-42" value="&lt;font style=&quot;font-size: 22px;&quot;&gt;MDS&lt;/font&gt;" style="sketch=0;outlineConnect=0;fontColor=#232F3E;gradientColor=none;fillColor=#000000;strokeColor=none;dashed=0;verticalLabelPosition=bottom;verticalAlign=top;align=center;html=1;fontSize=12;fontStyle=0;aspect=fixed;pointerEvents=1;shape=mxgraph.aws4.servers;strokeWidth=0;" parent="cMsTI4cnmAn1WkQD0yUU-2" vertex="1">
          <mxGeometry x="15" y="20" width="69" height="69" as="geometry" />
        </mxCell>
        <mxCell id="sVHNkwEm1qRxrIIXRCfi-43" value="&lt;font style=&quot;font-size: 22px;&quot;&gt;OSD&lt;/font&gt;" style="shape=datastore;whiteSpace=wrap;html=1;strokeWidth=3;fillColor=none;" parent="cMsTI4cnmAn1WkQD0yUU-2" vertex="1">
          <mxGeometry x="15" y="140" width="70" height="70" as="geometry" />
        </mxCell>
        <mxCell id="sVHNkwEm1qRxrIIXRCfi-44" value="&lt;font style=&quot;font-size: 22px;&quot;&gt;MON&lt;/font&gt;" style="sketch=0;outlineConnect=0;fontColor=#232F3E;gradientColor=none;fillColor=#000000;strokeColor=none;dashed=0;verticalLabelPosition=bottom;verticalAlign=top;align=center;html=1;fontSize=12;fontStyle=0;aspect=fixed;pointerEvents=1;shape=mxgraph.aws4.opensearch_service_data_node;" parent="cMsTI4cnmAn1WkQD0yUU-2" vertex="1">
          <mxGeometry x="115" y="20" width="70" height="70" as="geometry" />
        </mxCell>
        <mxCell id="cMsTI4cnmAn1WkQD0yUU-3" value="" style="group" vertex="1" connectable="0" parent="1">
          <mxGeometry x="608" y="360" width="200" height="230" as="geometry" />
        </mxCell>
        <mxCell id="sVHNkwEm1qRxrIIXRCfi-47" value="" style="rounded=1;whiteSpace=wrap;html=1;fillColor=none;strokeWidth=1;" parent="cMsTI4cnmAn1WkQD0yUU-3" vertex="1">
          <mxGeometry width="200" height="230" as="geometry" />
        </mxCell>
        <mxCell id="sVHNkwEm1qRxrIIXRCfi-48" value="&lt;font style=&quot;font-size: 22px;&quot;&gt;OSD&lt;/font&gt;" style="shape=datastore;whiteSpace=wrap;html=1;strokeWidth=3;fillColor=none;" parent="cMsTI4cnmAn1WkQD0yUU-3" vertex="1">
          <mxGeometry x="115" y="140" width="70" height="70" as="geometry" />
        </mxCell>
        <mxCell id="sVHNkwEm1qRxrIIXRCfi-50" value="&lt;font style=&quot;font-size: 22px;&quot;&gt;OSD&lt;/font&gt;" style="shape=datastore;whiteSpace=wrap;html=1;strokeWidth=3;fillColor=none;" parent="cMsTI4cnmAn1WkQD0yUU-3" vertex="1">
          <mxGeometry x="15" y="140" width="70" height="70" as="geometry" />
        </mxCell>
        <mxCell id="sVHNkwEm1qRxrIIXRCfi-51" value="&lt;font style=&quot;font-size: 22px;&quot;&gt;MON&lt;/font&gt;" style="sketch=0;outlineConnect=0;fontColor=#232F3E;gradientColor=none;fillColor=#000000;strokeColor=none;dashed=0;verticalLabelPosition=bottom;verticalAlign=top;align=center;html=1;fontSize=12;fontStyle=0;aspect=fixed;pointerEvents=1;shape=mxgraph.aws4.opensearch_service_data_node;" parent="cMsTI4cnmAn1WkQD0yUU-3" vertex="1">
          <mxGeometry x="115" y="20" width="70" height="70" as="geometry" />
        </mxCell>
        <mxCell id="sVHNkwEm1qRxrIIXRCfi-52" value="&lt;font style=&quot;font-size: 22px;&quot;&gt;OSD&lt;/font&gt;" style="shape=datastore;whiteSpace=wrap;html=1;strokeWidth=3;fillColor=none;" parent="cMsTI4cnmAn1WkQD0yUU-3" vertex="1">
          <mxGeometry x="15" y="20" width="70" height="70" as="geometry" />
        </mxCell>
      </root>
    </mxGraphModel>
  </diagram>
</mxfile>
